# xmcd
#
# Track frame offsets:
#	150
#	24705
#	51600
#	73025
#	96883
#	124125
#	147424
#	184891
#
# Disc length: 3505 seconds
#
# Revision: 1
# Processed by: cddbd v1.5.2PL0 Copyright (c) Steve Scherf et al.
# Submitted via: audiograbber 1.83.01
#
DISCID=7d0daf08
DTITLE=Gracia and Grisman - 91-12-09 Warfield Theatre, San Francisco CA
DYEAR=1900
DGENRE=
TTITLE0=The Thrill Is Gone
TTITLE1=I Ain't Never Seen Nobody Like You
TTITLE2=Grateful Dawg
TTITLE3=Two Soldiers
TTITLE4=Louis Collins
TTITLE5=Shady Grove
TTITLE6=Friend Of The Devil
TTITLE7=Arabia
EXTD=
EXTT0=
EXTT1=
EXTT2=
EXTT3=
EXTT4=
EXTT5=
EXTT6=
EXTT7=
PLAYORDER=
